<svg width="400" height="400" viewBox="0 0 400 400" fill="none" xmlns="http://www.w3.org/2000/svg">
<rect width="400" height="400" fill="white"/>
<path opacity="0.4" d="M90.2857 72H309.714C319.808 72 328 78.3716 328 86.2222V313.778C328 321.628 319.808 328 309.714 328H90.2857C80.192 328 72 321.628 72 313.778V86.2222C72 78.3716 80.192 72 90.2857 72Z" stroke="#00977F" stroke-width="2" stroke-miterlimit="10" stroke-linejoin="round"/>
<path opacity="0.1" d="M309.714 72H90.2857C80.192 72 72 78.3716 72 86.2222V313.778C72 321.628 80.192 328 90.2857 328H309.714C319.808 328 328 321.628 328 313.778V86.2222C328 78.3716 319.808 72 309.714 72Z" fill="#00977F"/>
<path fill-rule="evenodd" clip-rule="evenodd" d="M142.97 115.002C142.97 115.002 134.662 157.9 142.97 172.295C151.278 186.69 166.26 190.658 181.557 181.835C196.841 173.012 202.498 154.176 194.191 139.781C185.883 125.386 142.97 115.002 142.97 115.002ZM200.932 235.005C222.534 266.833 242.128 295.703 257.557 286.883C271.15 279.12 242.803 227.584 215.732 188.051C210.862 195.5 204.13 201.802 195.823 206.672C192.242 208.677 188.518 210.396 184.794 211.685C190.272 219.298 195.662 227.24 200.932 235.005Z" fill="#00977F"/>
</svg>
